<!DOCTYPE svg PUBLIC "-//W3C//DTD SVG 1.1//EN" "http://www.w3.org/Graphics/SVG/1.1/DTD/svg11.dtd">
<!-- Uploaded to: SVG Repo, www.svgrepo.com, Transformed by: SVG Repo Mixer Tools -->
<svg fill="#000000" height="800px" width="800px" version="1.1" id="Layer_1" xmlns="http://www.w3.org/2000/svg" xmlns:xlink="http://www.w3.org/1999/xlink" viewBox="-51.2 -51.2 614.40 614.40" enable-background="new 0 0 512 512" xml:space="preserve" transform="matrix(-1, 0, 0, 1, 0, 0)rotate(0)">
<g id="SVGRepo_bgCarrier" stroke-width="0"/>
<g id="SVGRepo_tracerCarrier" stroke-linecap="round" stroke-linejoin="round" stroke="#CCCCCC" stroke-width="25.6"> <path d="M448,0H64C28.6,0,0,28.6,0,64v256c0,35.4,28.6,64,64,64h128l-42.7,128l192-128H448c35.4,0,64-28.6,64-64V64 C512,28.6,483.4,0,448,0z M128,234.7c-23.6,0-42.7-19.1-42.7-42.7s19.1-42.7,42.7-42.7s42.7,19.1,42.7,42.7S151.6,234.7,128,234.7z M256,234.7c-23.6,0-42.7-19.1-42.7-42.7s19.1-42.7,42.7-42.7s42.7,19.1,42.7,42.7S279.6,234.7,256,234.7z M384,234.7 c-23.6,0-42.7-19.1-42.7-42.7s19.1-42.7,42.7-42.7s42.7,19.1,42.7,42.7S407.6,234.7,384,234.7z"/> </g>
<g id="SVGRepo_iconCarrier"> <path d="M448,0H64C28.6,0,0,28.6,0,64v256c0,35.4,28.6,64,64,64h128l-42.7,128l192-128H448c35.4,0,64-28.6,64-64V64 C512,28.6,483.4,0,448,0z M128,234.7c-23.6,0-42.7-19.1-42.7-42.7s19.1-42.7,42.7-42.7s42.7,19.1,42.7,42.7S151.6,234.7,128,234.7z M256,234.7c-23.6,0-42.7-19.1-42.7-42.7s19.1-42.7,42.7-42.7s42.7,19.1,42.7,42.7S279.6,234.7,256,234.7z M384,234.7 c-23.6,0-42.7-19.1-42.7-42.7s19.1-42.7,42.7-42.7s42.7,19.1,42.7,42.7S407.6,234.7,384,234.7z"/> </g>
</svg>